<svg xmlns="http://www.w3.org/2000/svg" xmlns:xlink="http://www.w3.org/1999/xlink" width="500" zoomAndPan="magnify" viewBox="0 0 375 374.999991" height="500" preserveAspectRatio="xMidYMid meet" version="1.0"><defs><g/><clipPath id="a881c216a4"><path d="M 53.800781 141.5625 L 114 141.5625 L 114 219.5625 L 53.800781 219.5625 Z M 53.800781 141.5625 " clip-rule="nonzero"/></clipPath><clipPath id="091a8e107a"><path d="M 90 174 L 123.550781 174 L 123.550781 219 L 90 219 Z M 90 174 " clip-rule="nonzero"/></clipPath><clipPath id="71e83bf739"><path d="M 38 162 L 90 162 L 90 212 L 38 212 Z M 38 162 " clip-rule="nonzero"/></clipPath></defs><g clip-path="url(#a881c216a4)"><path fill="#104a52" d="M 113.300781 156.445312 L 113.300781 183.734375 C 113.300781 202.449219 101.777344 212.785156 84.382812 219.40625 C 84.125 219.503906 83.84375 219.5625 83.566406 219.5625 C 83.289062 219.5625 83.011719 219.503906 82.753906 219.40625 C 70.316406 214.703125 53.8125 205.867188 53.8125 183.734375 L 53.8125 156.445312 C 53.8125 155.179688 54.84375 154.171875 56.09375 154.171875 C 68.789062 154.171875 81.882812 142.472656 82.019531 142.355469 C 82.894531 141.5625 84.222656 141.5625 85.09375 142.355469 C 85.234375 142.472656 98.347656 154.171875 111.019531 154.171875 C 112.269531 154.171875 113.300781 155.179688 113.300781 156.445312 Z M 113.300781 156.445312 " fill-opacity="1" fill-rule="nonzero"/></g><g clip-path="url(#091a8e107a)"><path fill="#55b43b" d="M 123.539062 182.984375 L 123.539062 198.378906 C 123.539062 208.933594 117.050781 214.761719 107.230469 218.496094 C 107.09375 218.554688 106.933594 218.574219 106.777344 218.574219 C 106.617188 218.574219 106.457031 218.554688 106.320312 218.496094 C 99.316406 215.828125 90.015625 210.847656 90.015625 198.378906 L 90.015625 182.984375 C 90.015625 182.273438 90.589844 181.699219 91.304688 181.699219 C 98.464844 181.699219 105.84375 175.101562 105.921875 175.039062 C 106.417969 174.605469 107.171875 174.605469 107.648438 175.039062 C 107.726562 175.101562 115.128906 181.699219 122.269531 181.699219 C 122.960938 181.699219 123.539062 182.273438 123.539062 182.984375 Z M 123.539062 182.984375 " fill-opacity="1" fill-rule="nonzero"/></g><path fill="#3e891f" d="M 113.300781 183.734375 C 113.300781 197.507812 107.074219 206.738281 96.839844 213.300781 C 92.96875 210.097656 89.996094 205.433594 89.996094 198.378906 L 89.996094 182.984375 C 89.996094 182.273438 90.570312 181.699219 91.285156 181.699219 C 98.445312 181.699219 105.824219 175.101562 105.902344 175.039062 C 106.398438 174.605469 107.152344 174.605469 107.628906 175.039062 C 107.667969 175.078125 110.007812 177.15625 113.300781 178.972656 Z M 113.300781 183.734375 " fill-opacity="1" fill-rule="nonzero"/><g clip-path="url(#71e83bf739)"><path fill="#55b43b" d="M 39.292969 198.390625 C 42.800781 198.390625 46.304688 198.390625 49.8125 198.390625 C 50.410156 198.390625 50.90625 197.988281 51.078125 197.429688 C 53.269531 190.472656 55.460938 183.519531 57.652344 176.5625 C 56.808594 176.5625 55.964844 176.5625 55.117188 176.5625 C 57.75 183.808594 60.378906 191.054688 63.007812 198.300781 C 63.425781 199.453125 65.203125 199.632812 65.542969 198.300781 C 68.464844 186.851562 71.386719 175.402344 74.308594 163.953125 C 73.464844 163.953125 72.617188 163.953125 71.773438 163.953125 C 74.550781 179.605469 77.324219 195.257812 80.101562 210.910156 C 80.296875 212.003906 82.027344 212.203125 82.503906 211.222656 C 84.617188 206.894531 86.726562 202.566406 88.835938 198.238281 C 89.363281 197.164062 87.203125 198.390625 88.625 198.390625 C 90.007812 198.390625 91.390625 198.390625 92.773438 198.390625 C 95.253906 198.390625 97.734375 198.390625 100.214844 198.390625 C 101.914062 198.390625 101.914062 195.78125 100.214844 195.78125 C 96.125 195.78125 92.035156 195.78125 87.945312 195.78125 C 87.507812 195.78125 87.003906 196.023438 86.808594 196.425781 C 84.617188 200.917969 82.425781 205.410156 80.234375 209.90625 C 81.035156 210.007812 81.835938 210.113281 82.636719 210.21875 C 79.859375 194.5625 77.085938 178.910156 74.308594 163.257812 C 74.078125 161.957031 72.078125 162.066406 71.773438 163.257812 C 68.851562 174.707031 65.929688 186.15625 63.007812 197.609375 C 63.851562 197.609375 64.699219 197.609375 65.542969 197.609375 C 62.914062 190.359375 60.285156 183.113281 57.652344 175.867188 C 57.21875 174.667969 55.523438 174.585938 55.117188 175.867188 C 52.925781 182.824219 50.734375 189.78125 48.542969 196.738281 C 48.964844 196.417969 49.390625 196.101562 49.8125 195.78125 C 46.304688 195.78125 42.800781 195.78125 39.292969 195.78125 C 37.597656 195.78125 37.597656 198.390625 39.292969 198.390625 Z M 39.292969 198.390625 " fill-opacity="1" fill-rule="nonzero"/></g><g fill="#104a52" fill-opacity="1"><g transform="translate(131.951686, 217.90861)"><g><path d="M 3.382812 0 L 3.382812 -2.558594 L 5.863281 -6.6875 L 4.941406 -6.6875 L 2.945312 -3.355469 L 0.972656 -6.6875 L 0.0351562 -6.6875 L 2.542969 -2.558594 L 2.542969 0 Z M 3.382812 0 "/></g></g></g><g fill="#104a52" fill-opacity="1"><g transform="translate(139.682231, 217.90861)"><g><path d="M 3.539062 0.0859375 C 5.660156 0.0859375 6.660156 -1.523438 6.660156 -3.347656 C 6.660156 -5.171875 5.660156 -6.773438 3.539062 -6.773438 C 1.4375 -6.773438 0.4375 -5.171875 0.4375 -3.347656 C 0.4375 -1.523438 1.4375 0.0859375 3.539062 0.0859375 Z M 3.539062 -0.640625 C 2.058594 -0.640625 1.246094 -1.777344 1.246094 -3.347656 C 1.246094 -4.910156 2.058594 -6.046875 3.539062 -6.046875 C 5.046875 -6.046875 5.855469 -4.910156 5.855469 -3.347656 C 5.855469 -1.777344 5.046875 -0.640625 3.539062 -0.640625 Z M 3.539062 -0.640625 "/></g></g></g><g fill="#104a52" fill-opacity="1"><g transform="translate(148.613555, 217.90861)"><g><path d="M 3.113281 0.0859375 C 4.804688 0.0859375 5.59375 -0.832031 5.59375 -2.3125 L 5.59375 -6.6875 L 4.785156 -6.6875 L 4.785156 -2.3125 C 4.785156 -1.269531 4.277344 -0.632812 3.113281 -0.632812 C 1.945312 -0.632812 1.4375 -1.269531 1.4375 -2.3125 L 1.4375 -6.6875 L 0.632812 -6.6875 L 0.632812 -2.3125 C 0.632812 -0.832031 1.417969 0.0859375 3.113281 0.0859375 Z M 3.113281 0.0859375 "/></g></g></g><g fill="#104a52" fill-opacity="1"><g transform="translate(156.668395, 217.90861)"><g><path d="M 4.101562 -2.972656 C 4.855469 -3.242188 5.300781 -3.875 5.300781 -4.777344 C 5.300781 -6.066406 4.460938 -6.6875 3.179688 -6.6875 L 0.691406 -6.6875 L 0.691406 0 L 1.5 0 L 1.5 -2.820312 L 3.320312 -2.820312 L 4.503906 0 L 5.390625 0 Z M 1.5 -3.539062 L 1.5 -5.960938 L 3.078125 -5.960938 C 3.980469 -5.960938 4.503906 -5.523438 4.503906 -4.75 C 4.503906 -3.96875 3.996094 -3.539062 3.078125 -3.539062 Z M 1.5 -3.539062 "/></g></g></g><g fill="#104a52" fill-opacity="1"><g transform="translate(164.276235, 217.90861)"><g/></g></g><g fill="#104a52" fill-opacity="1"><g transform="translate(168.553454, 217.90861)"><g><path d="M 3.066406 0 L 4.707031 -5.371094 L 6.34375 0 L 7.257812 0 L 9.238281 -6.6875 L 8.398438 -6.6875 L 6.75 -1.148438 L 5.09375 -6.6875 L 4.320312 -6.6875 L 2.671875 -1.15625 L 1.015625 -6.6875 L 0.175781 -6.6875 L 2.15625 0 Z M 3.066406 0 "/></g></g></g><g fill="#104a52" fill-opacity="1"><g transform="translate(179.789921, 217.90861)"><g><path d="M 0.9375 0 L 1.523438 -1.640625 L 4.558594 -1.640625 L 5.144531 0 L 5.960938 0 L 3.496094 -6.6875 L 2.585938 -6.6875 L 0.121094 0 Z M 3.042969 -5.863281 L 4.285156 -2.359375 L 1.796875 -2.359375 Z M 3.042969 -5.863281 "/></g></g></g><g fill="#104a52" fill-opacity="1"><g transform="translate(187.695767, 217.90861)"><g><path d="M 3.382812 0 L 3.382812 -2.558594 L 5.863281 -6.6875 L 4.941406 -6.6875 L 2.945312 -3.355469 L 0.972656 -6.6875 L 0.0351562 -6.6875 L 2.542969 -2.558594 L 2.542969 0 Z M 3.382812 0 "/></g></g></g><g fill="#104a52" fill-opacity="1"><g transform="translate(195.426313, 217.90861)"><g/></g></g><g fill="#104a52" fill-opacity="1"><g transform="translate(199.703531, 217.90861)"><g><path d="M 3.191406 0 L 3.191406 -5.960938 L 5.460938 -5.960938 L 5.460938 -6.6875 L 0.121094 -6.6875 L 0.121094 -5.960938 L 2.382812 -5.960938 L 2.382812 0 Z M 3.191406 0 "/></g></g></g><g fill="#104a52" fill-opacity="1"><g transform="translate(207.109782, 217.90861)"><g><path d="M 3.539062 0.0859375 C 5.660156 0.0859375 6.660156 -1.523438 6.660156 -3.347656 C 6.660156 -5.171875 5.660156 -6.773438 3.539062 -6.773438 C 1.4375 -6.773438 0.4375 -5.171875 0.4375 -3.347656 C 0.4375 -1.523438 1.4375 0.0859375 3.539062 0.0859375 Z M 3.539062 -0.640625 C 2.058594 -0.640625 1.246094 -1.777344 1.246094 -3.347656 C 1.246094 -4.910156 2.058594 -6.046875 3.539062 -6.046875 C 5.046875 -6.046875 5.855469 -4.910156 5.855469 -3.347656 C 5.855469 -1.777344 5.046875 -0.640625 3.539062 -0.640625 Z M 3.539062 -0.640625 "/></g></g></g><g fill="#104a52" fill-opacity="1"><g transform="translate(216.041108, 217.90861)"><g/></g></g><g fill="#104a52" fill-opacity="1"><g transform="translate(220.318326, 217.90861)"><g><path d="M 3.3125 0 C 3.875 0 4.628906 -0.121094 5.109375 -0.585938 C 5.398438 -0.875 5.601562 -1.289062 5.601562 -1.882812 C 5.601562 -2.820312 5.074219 -3.4375 4.128906 -3.507812 C 4.839844 -3.574219 5.269531 -4.214844 5.269531 -5.011719 C 5.269531 -5.496094 5.128906 -5.90625 4.820312 -6.195312 C 4.488281 -6.511719 3.96875 -6.6875 3.207031 -6.6875 L 0.691406 -6.6875 L 0.691406 0 Z M 1.5 -5.960938 L 3.03125 -5.960938 C 3.515625 -5.960938 3.917969 -5.863281 4.171875 -5.617188 C 4.347656 -5.453125 4.453125 -5.214844 4.453125 -4.882812 C 4.453125 -4.191406 3.996094 -3.785156 3.207031 -3.785156 L 1.5 -3.785156 Z M 1.5 -3.066406 L 3.402344 -3.066406 C 3.769531 -3.066406 4.792969 -3.066406 4.792969 -1.9375 C 4.792969 -1.523438 4.664062 -1.253906 4.46875 -1.078125 C 4.09375 -0.726562 3.488281 -0.726562 3.226562 -0.726562 L 1.5 -0.726562 Z M 1.5 -3.066406 "/></g></g></g><g fill="#104a52" fill-opacity="1"><g transform="translate(228.189104, 217.90861)"><g><path d="M 5.011719 0 L 5.011719 -0.726562 L 1.5 -0.726562 L 1.5 -2.996094 L 4.601562 -2.996094 L 4.601562 -3.714844 L 1.5 -3.714844 L 1.5 -5.960938 L 5.011719 -5.960938 L 5.011719 -6.6875 L 0.691406 -6.6875 L 0.691406 0 Z M 5.011719 0 "/></g></g></g><g fill="#104a52" fill-opacity="1"><g transform="translate(235.411296, 217.90861)"><g><path d="M 3.191406 0 L 3.191406 -5.960938 L 5.460938 -5.960938 L 5.460938 -6.6875 L 0.121094 -6.6875 L 0.121094 -5.960938 L 2.382812 -5.960938 L 2.382812 0 Z M 3.191406 0 "/></g></g></g><g fill="#104a52" fill-opacity="1"><g transform="translate(242.817547, 217.90861)"><g><path d="M 3.191406 0 L 3.191406 -5.960938 L 5.460938 -5.960938 L 5.460938 -6.6875 L 0.121094 -6.6875 L 0.121094 -5.960938 L 2.382812 -5.960938 L 2.382812 0 Z M 3.191406 0 "/></g></g></g><g fill="#104a52" fill-opacity="1"><g transform="translate(250.223797, 217.90861)"><g><path d="M 5.011719 0 L 5.011719 -0.726562 L 1.5 -0.726562 L 1.5 -2.996094 L 4.601562 -2.996094 L 4.601562 -3.714844 L 1.5 -3.714844 L 1.5 -5.960938 L 5.011719 -5.960938 L 5.011719 -6.6875 L 0.691406 -6.6875 L 0.691406 0 Z M 5.011719 0 "/></g></g></g><g fill="#104a52" fill-opacity="1"><g transform="translate(257.44599, 217.90861)"><g><path d="M 4.101562 -2.972656 C 4.855469 -3.242188 5.300781 -3.875 5.300781 -4.777344 C 5.300781 -6.066406 4.460938 -6.6875 3.179688 -6.6875 L 0.691406 -6.6875 L 0.691406 0 L 1.5 0 L 1.5 -2.820312 L 3.320312 -2.820312 L 4.503906 0 L 5.390625 0 Z M 1.5 -3.539062 L 1.5 -5.960938 L 3.078125 -5.960938 C 3.980469 -5.960938 4.503906 -5.523438 4.503906 -4.75 C 4.503906 -3.96875 3.996094 -3.539062 3.078125 -3.539062 Z M 1.5 -3.539062 "/></g></g></g><g fill="#104a52" fill-opacity="1"><g transform="translate(265.05383, 217.90861)"><g/></g></g><g fill="#104a52" fill-opacity="1"><g transform="translate(269.331049, 217.90861)"><g><path d="M 1.5 0 L 1.5 -3.007812 L 4.847656 -3.007812 L 4.847656 0 L 5.652344 0 L 5.652344 -6.6875 L 4.847656 -6.6875 L 4.847656 -3.726562 L 1.5 -3.726562 L 1.5 -6.6875 L 0.691406 -6.6875 L 0.691406 0 Z M 1.5 0 "/></g></g></g><g fill="#104a52" fill-opacity="1"><g transform="translate(277.508597, 217.90861)"><g><path d="M 5.011719 0 L 5.011719 -0.726562 L 1.5 -0.726562 L 1.5 -2.996094 L 4.601562 -2.996094 L 4.601562 -3.714844 L 1.5 -3.714844 L 1.5 -5.960938 L 5.011719 -5.960938 L 5.011719 -6.6875 L 0.691406 -6.6875 L 0.691406 0 Z M 5.011719 0 "/></g></g></g><g fill="#104a52" fill-opacity="1"><g transform="translate(284.730789, 217.90861)"><g><path d="M 0.9375 0 L 1.523438 -1.640625 L 4.558594 -1.640625 L 5.144531 0 L 5.960938 0 L 3.496094 -6.6875 L 2.585938 -6.6875 L 0.121094 0 Z M 3.042969 -5.863281 L 4.285156 -2.359375 L 1.796875 -2.359375 Z M 3.042969 -5.863281 "/></g></g></g><g fill="#104a52" fill-opacity="1"><g transform="translate(292.636634, 217.90861)"><g><path d="M 4.496094 0 L 4.496094 -0.726562 L 1.5 -0.726562 L 1.5 -6.6875 L 0.691406 -6.6875 L 0.691406 0 Z M 4.496094 0 "/></g></g></g><g fill="#104a52" fill-opacity="1"><g transform="translate(299.087518, 217.90861)"><g><path d="M 3.191406 0 L 3.191406 -5.960938 L 5.460938 -5.960938 L 5.460938 -6.6875 L 0.121094 -6.6875 L 0.121094 -5.960938 L 2.382812 -5.960938 L 2.382812 0 Z M 3.191406 0 "/></g></g></g><g fill="#104a52" fill-opacity="1"><g transform="translate(306.493769, 217.90861)"><g><path d="M 1.5 0 L 1.5 -3.007812 L 4.847656 -3.007812 L 4.847656 0 L 5.652344 0 L 5.652344 -6.6875 L 4.847656 -6.6875 L 4.847656 -3.726562 L 1.5 -3.726562 L 1.5 -6.6875 L 0.691406 -6.6875 L 0.691406 0 Z M 1.5 0 "/></g></g></g><g fill="#104a52" fill-opacity="1"><g transform="translate(131.951686, 174.523382)"><g><path d="M 11.609375 0.3125 C 10.035156 0.3125 8.609375 0.0625 7.328125 -0.4375 C 6.054688 -0.9375 4.972656 -1.664062 4.078125 -2.625 C 3.179688 -3.59375 2.484375 -4.773438 1.984375 -6.171875 C 1.492188 -7.578125 1.25 -9.179688 1.25 -10.984375 C 1.25 -12.773438 1.492188 -14.375 1.984375 -15.78125 C 2.484375 -17.1875 3.179688 -18.367188 4.078125 -19.328125 C 4.972656 -20.285156 6.054688 -21.015625 7.328125 -21.515625 C 8.609375 -22.023438 10.035156 -22.28125 11.609375 -22.28125 C 12.984375 -22.28125 14.195312 -22.097656 15.25 -21.734375 C 16.3125 -21.378906 17.234375 -20.882812 18.015625 -20.25 C 18.804688 -19.613281 19.460938 -18.851562 19.984375 -17.96875 C 20.503906 -17.09375 20.898438 -16.125 21.171875 -15.0625 L 16.3125 -15.0625 C 16.125 -15.5 15.894531 -15.894531 15.625 -16.25 C 15.351562 -16.601562 15.035156 -16.914062 14.671875 -17.1875 C 14.304688 -17.457031 13.867188 -17.664062 13.359375 -17.8125 C 12.859375 -17.96875 12.273438 -18.046875 11.609375 -18.046875 C 10.796875 -18.046875 10.039062 -17.894531 9.34375 -17.59375 C 8.65625 -17.300781 8.0625 -16.863281 7.5625 -16.28125 C 7.0625 -15.695312 6.671875 -14.957031 6.390625 -14.0625 C 6.109375 -13.175781 5.96875 -12.148438 5.96875 -10.984375 C 5.96875 -9.804688 6.109375 -8.773438 6.390625 -7.890625 C 6.671875 -7.003906 7.0625 -6.265625 7.5625 -5.671875 C 8.0625 -5.085938 8.65625 -4.648438 9.34375 -4.359375 C 10.039062 -4.066406 10.796875 -3.921875 11.609375 -3.921875 C 12.273438 -3.921875 12.859375 -3.992188 13.359375 -4.140625 C 13.867188 -4.285156 14.304688 -4.492188 14.671875 -4.765625 C 15.035156 -5.035156 15.351562 -5.347656 15.625 -5.703125 C 15.894531 -6.066406 16.125 -6.46875 16.3125 -6.90625 L 21.171875 -6.90625 C 20.898438 -5.832031 20.503906 -4.859375 19.984375 -3.984375 C 19.460938 -3.109375 18.804688 -2.347656 18.015625 -1.703125 C 17.234375 -1.066406 16.3125 -0.570312 15.25 -0.21875 C 14.195312 0.132812 12.984375 0.3125 11.609375 0.3125 Z M 11.609375 0.3125 "/></g></g></g><g fill="#104a52" fill-opacity="1"><g transform="translate(154.068323, 174.523382)"><g><path d="M 6.75 0.3125 C 5.84375 0.3125 5.03125 0.179688 4.3125 -0.078125 C 3.59375 -0.335938 2.976562 -0.695312 2.46875 -1.15625 C 1.96875 -1.613281 1.585938 -2.15625 1.328125 -2.78125 C 1.066406 -3.414062 0.9375 -4.109375 0.9375 -4.859375 C 0.9375 -5.617188 1.070312 -6.3125 1.34375 -6.9375 C 1.613281 -7.5625 2.019531 -8.101562 2.5625 -8.5625 C 3.113281 -9.019531 3.785156 -9.378906 4.578125 -9.640625 C 5.367188 -9.910156 6.300781 -10.046875 7.375 -10.046875 L 11.296875 -10.046875 L 11.296875 -10.828125 C 11.296875 -11.617188 11.039062 -12.207031 10.53125 -12.59375 C 10.03125 -12.976562 9.34375 -13.171875 8.46875 -13.171875 C 7.84375 -13.171875 7.3125 -13.035156 6.875 -12.765625 C 6.4375 -12.492188 6.132812 -12.160156 5.96875 -11.765625 L 1.5625 -11.765625 C 1.707031 -12.429688 1.960938 -13.070312 2.328125 -13.6875 C 2.703125 -14.3125 3.175781 -14.863281 3.75 -15.34375 C 4.320312 -15.820312 5.007812 -16.207031 5.8125 -16.5 C 6.625 -16.789062 7.5625 -16.9375 8.625 -16.9375 C 10.84375 -16.9375 12.570312 -16.40625 13.8125 -15.34375 C 15.0625 -14.28125 15.6875 -12.722656 15.6875 -10.671875 L 15.6875 0 L 11.921875 0 L 11.453125 -1.875 L 11.296875 -1.875 C 11.128906 -1.644531 10.921875 -1.398438 10.671875 -1.140625 C 10.421875 -0.878906 10.101562 -0.640625 9.71875 -0.421875 C 9.34375 -0.203125 8.910156 -0.0234375 8.421875 0.109375 C 7.929688 0.242188 7.375 0.3125 6.75 0.3125 Z M 7.84375 -3.296875 C 8.863281 -3.296875 9.691406 -3.582031 10.328125 -4.15625 C 10.972656 -4.726562 11.296875 -5.488281 11.296875 -6.4375 L 11.296875 -6.90625 L 7.53125 -6.90625 C 6.738281 -6.90625 6.171875 -6.738281 5.828125 -6.40625 C 5.492188 -6.070312 5.328125 -5.660156 5.328125 -5.171875 C 5.328125 -4.628906 5.523438 -4.179688 5.921875 -3.828125 C 6.328125 -3.472656 6.96875 -3.296875 7.84375 -3.296875 Z M 7.84375 -3.296875 "/></g></g></g><g fill="#104a52" fill-opacity="1"><g transform="translate(171.479297, 174.523382)"><g><path d="M 1.875 -16.625 L 5.640625 -16.625 L 6.125 -14.75 L 6.28125 -14.75 C 6.757812 -15.457031 7.332031 -15.945312 8 -16.21875 C 8.664062 -16.488281 9.398438 -16.625 10.203125 -16.625 L 12.234375 -16.625 L 12.234375 -12.390625 L 10.515625 -12.390625 C 9.171875 -12.390625 8.128906 -12.023438 7.390625 -11.296875 C 6.648438 -10.566406 6.28125 -9.570312 6.28125 -8.3125 L 6.28125 0 L 1.875 0 Z M 1.875 -16.625 "/></g></g></g><g fill="#104a52" fill-opacity="1"><g transform="translate(184.184597, 174.523382)"><g><path d="M 9.25 0.3125 C 8 0.3125 6.867188 0.117188 5.859375 -0.265625 C 4.859375 -0.648438 4.003906 -1.207031 3.296875 -1.9375 C 2.585938 -2.675781 2.039062 -3.578125 1.65625 -4.640625 C 1.28125 -5.710938 1.09375 -6.9375 1.09375 -8.3125 C 1.09375 -9.695312 1.28125 -10.921875 1.65625 -11.984375 C 2.039062 -13.046875 2.585938 -13.941406 3.296875 -14.671875 C 4.003906 -15.410156 4.859375 -15.972656 5.859375 -16.359375 C 6.867188 -16.742188 8 -16.9375 9.25 -16.9375 C 10.46875 -16.9375 11.566406 -16.734375 12.546875 -16.328125 C 13.535156 -15.921875 14.378906 -15.34375 15.078125 -14.59375 C 15.773438 -13.851562 16.3125 -12.976562 16.6875 -11.96875 C 17.0625 -10.957031 17.25 -9.84375 17.25 -8.625 C 17.25 -8.394531 17.238281 -8.175781 17.21875 -7.96875 C 17.195312 -7.757812 17.175781 -7.570312 17.15625 -7.40625 C 17.132812 -7.21875 17.113281 -7.050781 17.09375 -6.90625 L 5.640625 -6.90625 C 5.816406 -5.957031 6.1875 -5.171875 6.75 -4.546875 C 7.3125 -3.921875 8.144531 -3.609375 9.25 -3.609375 C 10.113281 -3.609375 10.75 -3.75 11.15625 -4.03125 C 11.5625 -4.3125 11.921875 -4.691406 12.234375 -5.171875 L 16.9375 -5.171875 C 16.75 -4.460938 16.460938 -3.78125 16.078125 -3.125 C 15.691406 -2.46875 15.1875 -1.878906 14.5625 -1.359375 C 13.945312 -0.847656 13.203125 -0.441406 12.328125 -0.140625 C 11.453125 0.160156 10.425781 0.3125 9.25 0.3125 Z M 12.703125 -10.203125 C 12.617188 -10.554688 12.488281 -10.898438 12.3125 -11.234375 C 12.132812 -11.566406 11.90625 -11.867188 11.625 -12.140625 C 11.34375 -12.410156 11.003906 -12.625 10.609375 -12.78125 C 10.210938 -12.9375 9.757812 -13.015625 9.25 -13.015625 C 8.226562 -13.015625 7.429688 -12.742188 6.859375 -12.203125 C 6.285156 -11.660156 5.878906 -10.992188 5.640625 -10.203125 Z M 12.703125 -10.203125 "/></g></g></g><g fill="#104a52" fill-opacity="1"><g transform="translate(202.536699, 174.523382)"><g><path d="M 0.15625 -21.96875 L 5.015625 -21.96875 L 8.46875 -6.75 L 8.625 -6.75 L 12.390625 -21.96875 L 17.40625 -21.96875 L 21.171875 -6.75 L 21.328125 -6.75 L 24.78125 -21.96875 L 29.65625 -21.96875 L 23.84375 0 L 18.671875 0 L 14.90625 -15.21875 L 11.140625 0 L 5.96875 0 Z M 0.15625 -21.96875 "/></g></g></g><g fill="#104a52" fill-opacity="1"><g transform="translate(232.339268, 174.523382)"><g><path d="M 6.75 0.3125 C 5.84375 0.3125 5.03125 0.179688 4.3125 -0.078125 C 3.59375 -0.335938 2.976562 -0.695312 2.46875 -1.15625 C 1.96875 -1.613281 1.585938 -2.15625 1.328125 -2.78125 C 1.066406 -3.414062 0.9375 -4.109375 0.9375 -4.859375 C 0.9375 -5.617188 1.070312 -6.3125 1.34375 -6.9375 C 1.613281 -7.5625 2.019531 -8.101562 2.5625 -8.5625 C 3.113281 -9.019531 3.785156 -9.378906 4.578125 -9.640625 C 5.367188 -9.910156 6.300781 -10.046875 7.375 -10.046875 L 11.296875 -10.046875 L 11.296875 -10.828125 C 11.296875 -11.617188 11.039062 -12.207031 10.53125 -12.59375 C 10.03125 -12.976562 9.34375 -13.171875 8.46875 -13.171875 C 7.84375 -13.171875 7.3125 -13.035156 6.875 -12.765625 C 6.4375 -12.492188 6.132812 -12.160156 5.96875 -11.765625 L 1.5625 -11.765625 C 1.707031 -12.429688 1.960938 -13.070312 2.328125 -13.6875 C 2.703125 -14.3125 3.175781 -14.863281 3.75 -15.34375 C 4.320312 -15.820312 5.007812 -16.207031 5.8125 -16.5 C 6.625 -16.789062 7.5625 -16.9375 8.625 -16.9375 C 10.84375 -16.9375 12.570312 -16.40625 13.8125 -15.34375 C 15.0625 -14.28125 15.6875 -12.722656 15.6875 -10.671875 L 15.6875 0 L 11.921875 0 L 11.453125 -1.875 L 11.296875 -1.875 C 11.128906 -1.644531 10.921875 -1.398438 10.671875 -1.140625 C 10.421875 -0.878906 10.101562 -0.640625 9.71875 -0.421875 C 9.34375 -0.203125 8.910156 -0.0234375 8.421875 0.109375 C 7.929688 0.242188 7.375 0.3125 6.75 0.3125 Z M 7.84375 -3.296875 C 8.863281 -3.296875 9.691406 -3.582031 10.328125 -4.15625 C 10.972656 -4.726562 11.296875 -5.488281 11.296875 -6.4375 L 11.296875 -6.90625 L 7.53125 -6.90625 C 6.738281 -6.90625 6.171875 -6.738281 5.828125 -6.40625 C 5.492188 -6.070312 5.328125 -5.660156 5.328125 -5.171875 C 5.328125 -4.628906 5.523438 -4.179688 5.921875 -3.828125 C 6.328125 -3.472656 6.96875 -3.296875 7.84375 -3.296875 Z M 7.84375 -3.296875 "/></g></g></g><g fill="#104a52" fill-opacity="1"><g transform="translate(249.750243, 174.523382)"><g><path d="M 6.625 0 L -0.15625 -16.625 L 4.703125 -16.625 L 8.78125 -5.796875 L 8.90625 -5.796875 L 12.859375 -16.625 L 17.734375 -16.625 L 8.625 6.28125 L 4.078125 6.28125 Z M 6.625 0 "/></g></g></g><g fill="#3e891f" fill-opacity="1"><g transform="translate(131.951686, 200.773385)"><g><path d="M 1.84375 -18.46875 L 7.65625 -18.46875 L 12 -5.671875 L 12.125 -5.671875 L 16.484375 -18.46875 L 22.28125 -18.46875 L 22.28125 0 L 18.328125 0 L 18.328125 -13.0625 L 18.203125 -13.0625 L 13.71875 0 L 10.421875 0 L 5.9375 -13.0625 L 5.796875 -13.0625 L 5.796875 0 L 1.84375 0 Z M 1.84375 -18.46875 "/></g></g></g><g fill="#3e891f" fill-opacity="1"><g transform="translate(156.077665, 200.773385)"><g><path d="M 7.78125 0.265625 C 6.726562 0.265625 5.78125 0.101562 4.9375 -0.21875 C 4.09375 -0.550781 3.367188 -1.023438 2.765625 -1.640625 C 2.171875 -2.253906 1.710938 -3.007812 1.390625 -3.90625 C 1.078125 -4.800781 0.921875 -5.828125 0.921875 -6.984375 C 0.921875 -8.148438 1.078125 -9.179688 1.390625 -10.078125 C 1.710938 -10.972656 2.171875 -11.726562 2.765625 -12.34375 C 3.367188 -12.957031 4.09375 -13.425781 4.9375 -13.75 C 5.78125 -14.082031 6.726562 -14.25 7.78125 -14.25 C 8.800781 -14.25 9.722656 -14.078125 10.546875 -13.734375 C 11.378906 -13.390625 12.085938 -12.90625 12.671875 -12.28125 C 13.265625 -11.65625 13.71875 -10.914062 14.03125 -10.0625 C 14.34375 -9.207031 14.5 -8.269531 14.5 -7.25 C 14.5 -7.0625 14.488281 -6.878906 14.46875 -6.703125 C 14.457031 -6.523438 14.441406 -6.363281 14.421875 -6.21875 C 14.410156 -6.0625 14.394531 -5.921875 14.375 -5.796875 L 4.75 -5.796875 C 4.882812 -5.003906 5.1875 -4.34375 5.65625 -3.8125 C 6.132812 -3.289062 6.84375 -3.03125 7.78125 -3.03125 C 8.5 -3.03125 9.03125 -3.148438 9.375 -3.390625 C 9.71875 -3.628906 10.019531 -3.953125 10.28125 -4.359375 L 14.25 -4.359375 C 14.082031 -3.753906 13.835938 -3.175781 13.515625 -2.625 C 13.191406 -2.070312 12.769531 -1.578125 12.25 -1.140625 C 11.726562 -0.710938 11.097656 -0.367188 10.359375 -0.109375 C 9.617188 0.140625 8.757812 0.265625 7.78125 0.265625 Z M 10.6875 -8.578125 C 10.613281 -8.867188 10.5 -9.15625 10.34375 -9.4375 C 10.195312 -9.71875 10.003906 -9.972656 9.765625 -10.203125 C 9.535156 -10.429688 9.25 -10.613281 8.90625 -10.75 C 8.570312 -10.882812 8.195312 -10.953125 7.78125 -10.953125 C 6.914062 -10.953125 6.238281 -10.722656 5.75 -10.265625 C 5.269531 -9.804688 4.9375 -9.242188 4.75 -8.578125 Z M 10.6875 -8.578125 "/></g></g></g><g fill="#3e891f" fill-opacity="1"><g transform="translate(171.502471, 200.773385)"><g><path d="M 6.984375 0.265625 C 6.085938 0.265625 5.269531 0.113281 4.53125 -0.1875 C 3.789062 -0.5 3.148438 -0.960938 2.609375 -1.578125 C 2.078125 -2.191406 1.660156 -2.945312 1.359375 -3.84375 C 1.066406 -4.75 0.921875 -5.796875 0.921875 -6.984375 C 0.921875 -8.160156 1.066406 -9.203125 1.359375 -10.109375 C 1.660156 -11.015625 2.078125 -11.773438 2.609375 -12.390625 C 3.148438 -13.003906 3.789062 -13.46875 4.53125 -13.78125 C 5.269531 -14.09375 6.085938 -14.25 6.984375 -14.25 C 7.515625 -14.25 7.984375 -14.191406 8.390625 -14.078125 C 8.804688 -13.960938 9.171875 -13.816406 9.484375 -13.640625 C 9.804688 -13.460938 10.070312 -13.269531 10.28125 -13.0625 C 10.5 -12.863281 10.675781 -12.6875 10.8125 -12.53125 L 10.953125 -12.53125 L 10.953125 -18.46875 L 14.640625 -18.46875 L 14.640625 0 L 11.46875 0 L 11.078125 -1.578125 L 10.953125 -1.578125 C 10.753906 -1.347656 10.523438 -1.125 10.265625 -0.90625 C 10.015625 -0.6875 9.726562 -0.488281 9.40625 -0.3125 C 9.09375 -0.132812 8.734375 0.00390625 8.328125 0.109375 C 7.929688 0.210938 7.484375 0.265625 6.984375 0.265625 Z M 7.78125 -3.03125 C 8.195312 -3.03125 8.597656 -3.101562 8.984375 -3.25 C 9.378906 -3.40625 9.71875 -3.644531 10 -3.96875 C 10.289062 -4.289062 10.519531 -4.703125 10.6875 -5.203125 C 10.863281 -5.703125 10.953125 -6.296875 10.953125 -6.984375 C 10.953125 -7.671875 10.863281 -8.265625 10.6875 -8.765625 C 10.519531 -9.265625 10.289062 -9.675781 10 -10 C 9.71875 -10.332031 9.378906 -10.570312 8.984375 -10.71875 C 8.597656 -10.875 8.195312 -10.953125 7.78125 -10.953125 C 7.351562 -10.953125 6.945312 -10.875 6.5625 -10.71875 C 6.175781 -10.570312 5.835938 -10.332031 5.546875 -10 C 5.253906 -9.675781 5.023438 -9.265625 4.859375 -8.765625 C 4.691406 -8.265625 4.609375 -7.671875 4.609375 -6.984375 C 4.609375 -6.296875 4.691406 -5.703125 4.859375 -5.203125 C 5.023438 -4.703125 5.253906 -4.289062 5.546875 -3.96875 C 5.835938 -3.644531 6.175781 -3.40625 6.5625 -3.25 C 6.945312 -3.101562 7.351562 -3.03125 7.78125 -3.03125 Z M 7.78125 -3.03125 "/></g></g></g><g fill="#3e891f" fill-opacity="1"><g transform="translate(187.850129, 200.773385)"><g><path d="M 1.578125 -13.984375 L 5.28125 -13.984375 L 5.28125 0 L 1.578125 0 Z M 3.421875 -15.421875 C 2.828125 -15.421875 2.328125 -15.625 1.921875 -16.03125 C 1.515625 -16.4375 1.3125 -16.941406 1.3125 -17.546875 C 1.3125 -18.140625 1.515625 -18.640625 1.921875 -19.046875 C 2.328125 -19.453125 2.828125 -19.65625 3.421875 -19.65625 C 4.023438 -19.65625 4.523438 -19.453125 4.921875 -19.046875 C 5.328125 -18.640625 5.53125 -18.140625 5.53125 -17.546875 C 5.53125 -16.941406 5.328125 -16.4375 4.921875 -16.03125 C 4.523438 -15.625 4.023438 -15.421875 3.421875 -15.421875 Z M 3.421875 -15.421875 "/></g></g></g><g fill="#3e891f" fill-opacity="1"><g transform="translate(194.705598, 200.773385)"><g><path d="M 7.78125 0.265625 C 6.726562 0.265625 5.78125 0.101562 4.9375 -0.21875 C 4.09375 -0.550781 3.367188 -1.023438 2.765625 -1.640625 C 2.171875 -2.253906 1.710938 -3.007812 1.390625 -3.90625 C 1.078125 -4.800781 0.921875 -5.828125 0.921875 -6.984375 C 0.921875 -8.148438 1.078125 -9.179688 1.390625 -10.078125 C 1.710938 -10.972656 2.171875 -11.726562 2.765625 -12.34375 C 3.367188 -12.957031 4.09375 -13.425781 4.9375 -13.75 C 5.78125 -14.082031 6.726562 -14.25 7.78125 -14.25 C 8.757812 -14.25 9.617188 -14.109375 10.359375 -13.828125 C 11.097656 -13.554688 11.726562 -13.1875 12.25 -12.71875 C 12.769531 -12.257812 13.191406 -11.722656 13.515625 -11.109375 C 13.835938 -10.503906 14.082031 -9.878906 14.25 -9.234375 L 10.546875 -9.234375 C 10.285156 -9.753906 9.941406 -10.171875 9.515625 -10.484375 C 9.097656 -10.796875 8.519531 -10.953125 7.78125 -10.953125 C 6.84375 -10.953125 6.078125 -10.617188 5.484375 -9.953125 C 4.898438 -9.296875 4.609375 -8.304688 4.609375 -6.984375 C 4.609375 -5.671875 4.898438 -4.679688 5.484375 -4.015625 C 6.078125 -3.359375 6.84375 -3.03125 7.78125 -3.03125 C 8.519531 -3.03125 9.097656 -3.179688 9.515625 -3.484375 C 9.941406 -3.796875 10.285156 -4.21875 10.546875 -4.75 L 14.25 -4.75 C 14.082031 -4.082031 13.835938 -3.445312 13.515625 -2.84375 C 13.191406 -2.25 12.769531 -1.71875 12.25 -1.25 C 11.726562 -0.78125 11.097656 -0.410156 10.359375 -0.140625 C 9.617188 0.128906 8.757812 0.265625 7.78125 0.265625 Z M 7.78125 0.265625 "/></g></g></g><g fill="#3e891f" fill-opacity="1"><g transform="translate(209.734897, 200.773385)"><g><path d="M 5.671875 0.265625 C 4.910156 0.265625 4.226562 0.15625 3.625 -0.0625 C 3.019531 -0.28125 2.503906 -0.582031 2.078125 -0.96875 C 1.660156 -1.363281 1.34375 -1.820312 1.125 -2.34375 C 0.90625 -2.875 0.796875 -3.457031 0.796875 -4.09375 C 0.796875 -4.71875 0.910156 -5.296875 1.140625 -5.828125 C 1.367188 -6.359375 1.707031 -6.816406 2.15625 -7.203125 C 2.613281 -7.585938 3.175781 -7.890625 3.84375 -8.109375 C 4.519531 -8.328125 5.304688 -8.4375 6.203125 -8.4375 L 9.5 -8.4375 L 9.5 -9.09375 C 9.5 -9.769531 9.285156 -10.269531 8.859375 -10.59375 C 8.441406 -10.914062 7.863281 -11.078125 7.125 -11.078125 C 6.59375 -11.078125 6.140625 -10.960938 5.765625 -10.734375 C 5.398438 -10.503906 5.148438 -10.222656 5.015625 -9.890625 L 1.3125 -9.890625 C 1.4375 -10.453125 1.648438 -10.992188 1.953125 -11.515625 C 2.265625 -12.035156 2.660156 -12.492188 3.140625 -12.890625 C 3.628906 -13.296875 4.210938 -13.625 4.890625 -13.875 C 5.566406 -14.125 6.351562 -14.25 7.25 -14.25 C 9.113281 -14.25 10.566406 -13.796875 11.609375 -12.890625 C 12.660156 -11.992188 13.1875 -10.6875 13.1875 -8.96875 L 13.1875 0 L 10.015625 0 L 9.625 -1.578125 L 9.5 -1.578125 C 9.351562 -1.390625 9.175781 -1.1875 8.96875 -0.96875 C 8.757812 -0.75 8.492188 -0.546875 8.171875 -0.359375 C 7.859375 -0.171875 7.492188 -0.0195312 7.078125 0.09375 C 6.671875 0.207031 6.203125 0.265625 5.671875 0.265625 Z M 6.59375 -2.765625 C 7.457031 -2.765625 8.15625 -3.003906 8.6875 -3.484375 C 9.226562 -3.972656 9.5 -4.613281 9.5 -5.40625 L 9.5 -5.796875 L 6.328125 -5.796875 C 5.660156 -5.796875 5.1875 -5.65625 4.90625 -5.375 C 4.625 -5.09375 4.484375 -4.753906 4.484375 -4.359375 C 4.484375 -3.898438 4.648438 -3.519531 4.984375 -3.21875 C 5.316406 -2.914062 5.851562 -2.765625 6.59375 -2.765625 Z M 6.59375 -2.765625 "/></g></g></g><g fill="#3e891f" fill-opacity="1"><g transform="translate(224.368688, 200.773385)"><g><path d="M 1.71875 -18.46875 L 5.40625 -18.46875 L 5.40625 0 L 1.71875 0 Z M 1.71875 -18.46875 "/></g></g></g><g fill="#3e891f" fill-opacity="1"><g transform="translate(231.487829, 200.773385)"><g/></g></g><g fill="#3e891f" fill-opacity="1"><g transform="translate(237.552283, 200.773385)"><g><path d="M 9.765625 0.265625 C 8.441406 0.265625 7.242188 0.0546875 6.171875 -0.359375 C 5.097656 -0.785156 4.179688 -1.398438 3.421875 -2.203125 C 2.671875 -3.015625 2.085938 -4.007812 1.671875 -5.1875 C 1.265625 -6.375 1.0625 -7.722656 1.0625 -9.234375 C 1.0625 -10.742188 1.265625 -12.085938 1.671875 -13.265625 C 2.085938 -14.441406 2.671875 -15.429688 3.421875 -16.234375 C 4.179688 -17.046875 5.097656 -17.660156 6.171875 -18.078125 C 7.242188 -18.503906 8.441406 -18.71875 9.765625 -18.71875 C 10.921875 -18.71875 11.941406 -18.566406 12.828125 -18.265625 C 13.710938 -17.972656 14.484375 -17.554688 15.140625 -17.015625 C 15.804688 -16.484375 16.359375 -15.847656 16.796875 -15.109375 C 17.234375 -14.367188 17.566406 -13.550781 17.796875 -12.65625 L 13.71875 -12.65625 C 13.5625 -13.03125 13.367188 -13.363281 13.140625 -13.65625 C 12.910156 -13.957031 12.640625 -14.222656 12.328125 -14.453125 C 12.023438 -14.679688 11.660156 -14.859375 11.234375 -14.984375 C 10.816406 -15.109375 10.328125 -15.171875 9.765625 -15.171875 C 9.078125 -15.171875 8.441406 -15.046875 7.859375 -14.796875 C 7.273438 -14.546875 6.769531 -14.175781 6.34375 -13.6875 C 5.925781 -13.195312 5.597656 -12.578125 5.359375 -11.828125 C 5.128906 -11.078125 5.015625 -10.210938 5.015625 -9.234375 C 5.015625 -8.242188 5.128906 -7.375 5.359375 -6.625 C 5.597656 -5.882812 5.925781 -5.265625 6.34375 -4.765625 C 6.769531 -4.273438 7.273438 -3.90625 7.859375 -3.65625 C 8.441406 -3.414062 9.078125 -3.296875 9.765625 -3.296875 C 10.328125 -3.296875 10.816406 -3.359375 11.234375 -3.484375 C 11.660156 -3.609375 12.023438 -3.785156 12.328125 -4.015625 C 12.640625 -4.242188 12.910156 -4.503906 13.140625 -4.796875 C 13.367188 -5.097656 13.5625 -5.429688 13.71875 -5.796875 L 17.796875 -5.796875 C 17.566406 -4.898438 17.234375 -4.082031 16.796875 -3.34375 C 16.359375 -2.601562 15.804688 -1.96875 15.140625 -1.4375 C 14.484375 -0.90625 13.710938 -0.488281 12.828125 -0.1875 C 11.941406 0.113281 10.921875 0.265625 9.765625 0.265625 Z M 9.765625 0.265625 "/></g></g></g><g fill="#3e891f" fill-opacity="1"><g transform="translate(256.141151, 200.773385)"><g><path d="M 1.71875 -18.46875 L 5.40625 -18.46875 L 5.40625 0 L 1.71875 0 Z M 1.71875 -18.46875 "/></g></g></g><g fill="#3e891f" fill-opacity="1"><g transform="translate(263.260293, 200.773385)"><g><path d="M 1.578125 -13.984375 L 5.28125 -13.984375 L 5.28125 0 L 1.578125 0 Z M 3.421875 -15.421875 C 2.828125 -15.421875 2.328125 -15.625 1.921875 -16.03125 C 1.515625 -16.4375 1.3125 -16.941406 1.3125 -17.546875 C 1.3125 -18.140625 1.515625 -18.640625 1.921875 -19.046875 C 2.328125 -19.453125 2.828125 -19.65625 3.421875 -19.65625 C 4.023438 -19.65625 4.523438 -19.453125 4.921875 -19.046875 C 5.328125 -18.640625 5.53125 -18.140625 5.53125 -17.546875 C 5.53125 -16.941406 5.328125 -16.4375 4.921875 -16.03125 C 4.523438 -15.625 4.023438 -15.421875 3.421875 -15.421875 Z M 3.421875 -15.421875 "/></g></g></g><g fill="#3e891f" fill-opacity="1"><g transform="translate(270.115762, 200.773385)"><g><path d="M 1.578125 -13.984375 L 4.75 -13.984375 L 5.140625 -12.390625 L 5.28125 -12.390625 C 5.726562 -12.992188 6.269531 -13.453125 6.90625 -13.765625 C 7.539062 -14.085938 8.226562 -14.25 8.96875 -14.25 C 9.726562 -14.25 10.421875 -14.117188 11.046875 -13.859375 C 11.679688 -13.609375 12.222656 -13.234375 12.671875 -12.734375 C 13.117188 -12.242188 13.46875 -11.648438 13.71875 -10.953125 C 13.976562 -10.265625 14.109375 -9.472656 14.109375 -8.578125 L 14.109375 0 L 10.421875 0 L 10.421875 -8.046875 C 10.421875 -8.972656 10.195312 -9.6875 9.75 -10.1875 C 9.3125 -10.695312 8.695312 -10.953125 7.90625 -10.953125 C 7.113281 -10.953125 6.476562 -10.679688 6 -10.140625 C 5.519531 -9.609375 5.28125 -8.910156 5.28125 -8.046875 L 5.28125 0 L 1.578125 0 Z M 1.578125 -13.984375 "/></g></g></g><g fill="#3e891f" fill-opacity="1"><g transform="translate(285.672405, 200.773385)"><g><path d="M 1.578125 -13.984375 L 5.28125 -13.984375 L 5.28125 0 L 1.578125 0 Z M 3.421875 -15.421875 C 2.828125 -15.421875 2.328125 -15.625 1.921875 -16.03125 C 1.515625 -16.4375 1.3125 -16.941406 1.3125 -17.546875 C 1.3125 -18.140625 1.515625 -18.640625 1.921875 -19.046875 C 2.328125 -19.453125 2.828125 -19.65625 3.421875 -19.65625 C 4.023438 -19.65625 4.523438 -19.453125 4.921875 -19.046875 C 5.328125 -18.640625 5.53125 -18.140625 5.53125 -17.546875 C 5.53125 -16.941406 5.328125 -16.4375 4.921875 -16.03125 C 4.523438 -15.625 4.023438 -15.421875 3.421875 -15.421875 Z M 3.421875 -15.421875 "/></g></g></g><g fill="#3e891f" fill-opacity="1"><g transform="translate(292.527874, 200.773385)"><g><path d="M 7.78125 0.265625 C 6.726562 0.265625 5.78125 0.101562 4.9375 -0.21875 C 4.09375 -0.550781 3.367188 -1.023438 2.765625 -1.640625 C 2.171875 -2.253906 1.710938 -3.007812 1.390625 -3.90625 C 1.078125 -4.800781 0.921875 -5.828125 0.921875 -6.984375 C 0.921875 -8.148438 1.078125 -9.179688 1.390625 -10.078125 C 1.710938 -10.972656 2.171875 -11.726562 2.765625 -12.34375 C 3.367188 -12.957031 4.09375 -13.425781 4.9375 -13.75 C 5.78125 -14.082031 6.726562 -14.25 7.78125 -14.25 C 8.757812 -14.25 9.617188 -14.109375 10.359375 -13.828125 C 11.097656 -13.554688 11.726562 -13.1875 12.25 -12.71875 C 12.769531 -12.257812 13.191406 -11.722656 13.515625 -11.109375 C 13.835938 -10.503906 14.082031 -9.878906 14.25 -9.234375 L 10.546875 -9.234375 C 10.285156 -9.753906 9.941406 -10.171875 9.515625 -10.484375 C 9.097656 -10.796875 8.519531 -10.953125 7.78125 -10.953125 C 6.84375 -10.953125 6.078125 -10.617188 5.484375 -9.953125 C 4.898438 -9.296875 4.609375 -8.304688 4.609375 -6.984375 C 4.609375 -5.671875 4.898438 -4.679688 5.484375 -4.015625 C 6.078125 -3.359375 6.84375 -3.03125 7.78125 -3.03125 C 8.519531 -3.03125 9.097656 -3.179688 9.515625 -3.484375 C 9.941406 -3.796875 10.285156 -4.21875 10.546875 -4.75 L 14.25 -4.75 C 14.082031 -4.082031 13.835938 -3.445312 13.515625 -2.84375 C 13.191406 -2.25 12.769531 -1.71875 12.25 -1.25 C 11.726562 -0.78125 11.097656 -0.410156 10.359375 -0.140625 C 9.617188 0.128906 8.757812 0.265625 7.78125 0.265625 Z M 7.78125 0.265625 "/></g></g></g></svg>